<svg xmlns="http://www.w3.org/2000/svg" viewBox="0 0 280 560" width="280" height="560">
  <defs>
    <linearGradient id="bgGrad" x1="0%" y1="0%" x2="100%" y2="100%">
      <stop offset="0%" style="stop-color:#FFF3E0"/>
      <stop offset="100%" style="stop-color:#FFFBF7"/>
    </linearGradient>
    <linearGradient id="orangeGrad" x1="0%" y1="0%" x2="100%" y2="100%">
      <stop offset="0%" style="stop-color:#E85D04"/>
      <stop offset="100%" style="stop-color:#C44D00"/>
    </linearGradient>
  </defs>
  
  <!-- Phone Frame -->
  <rect x="0" y="0" width="280" height="560" rx="35" fill="#1a1a1a"/>
  <rect x="8" y="8" width="264" height="544" rx="28" fill="url(#bgGrad)"/>
  
  <!-- Status Bar -->
  <rect x="8" y="8" width="264" height="44" rx="28" fill="url(#orangeGrad)"/>
  <text x="140" y="35" font-family="Arial, sans-serif" font-size="12" fill="#fff" text-anchor="middle" font-weight="bold">🍲 Ghar Ka Khana</text>
  
  <!-- Search Bar -->
  <rect x="20" y="60" width="240" height="40" rx="20" fill="#fff" stroke="#e5e7eb"/>
  <text x="40" y="85" font-family="Arial, sans-serif" font-size="12" fill="#9ca3af">🔍 Search for home chefs...</text>
  
  <!-- Category Pills -->
  <rect x="20" y="110" width="60" height="28" rx="14" fill="url(#orangeGrad)"/>
  <text x="50" y="128" font-family="Arial, sans-serif" font-size="10" fill="#fff" text-anchor="middle">All</text>
  <rect x="85" y="110" width="70" height="28" rx="14" fill="#fff" stroke="#E85D04"/>
  <text x="120" y="128" font-family="Arial, sans-serif" font-size="10" fill="#E85D04" text-anchor="middle">North</text>
  <rect x="160" y="110" width="70" height="28" rx="14" fill="#fff" stroke="#e5e7eb"/>
  <text x="195" y="128" font-family="Arial, sans-serif" font-size="10" fill="#6b7280" text-anchor="middle">South</text>
  
  <!-- Section Title -->
  <text x="20" y="165" font-family="Arial, sans-serif" font-size="14" fill="#1a1a1a" font-weight="bold">🏠 Home Chefs Near You</text>
  
  <!-- Food Card 1 -->
  <rect x="20" y="180" width="115" height="150" rx="12" fill="#fff" stroke="#e5e7eb"/>
  <rect x="20" y="180" width="115" height="80" rx="12" fill="#FFE4C4"/>
  <text x="77" y="225" font-family="Arial, sans-serif" font-size="28" text-anchor="middle">🍛</text>
  <text x="30" y="280" font-family="Arial, sans-serif" font-size="11" fill="#1a1a1a" font-weight="bold">Dal Tadka Thali</text>
  <text x="30" y="295" font-family="Arial, sans-serif" font-size="9" fill="#6b7280">By Meena's Kitchen</text>
  <text x="30" y="318" font-family="Arial, sans-serif" font-size="12" fill="#E85D04" font-weight="bold">₹120</text>
  <text x="95" y="318" font-family="Arial, sans-serif" font-size="9" fill="#F59E0B">⭐ 4.8</text>
  
  <!-- Food Card 2 -->
  <rect x="145" y="180" width="115" height="150" rx="12" fill="#fff" stroke="#e5e7eb"/>
  <rect x="145" y="180" width="115" height="80" rx="12" fill="#E8F5E9"/>
  <text x="202" y="225" font-family="Arial, sans-serif" font-size="28" text-anchor="middle">🥘</text>
  <text x="155" y="280" font-family="Arial, sans-serif" font-size="11" fill="#1a1a1a" font-weight="bold">Paneer Butter</text>
  <text x="155" y="295" font-family="Arial, sans-serif" font-size="9" fill="#6b7280">By Sharma Ji</text>
  <text x="155" y="318" font-family="Arial, sans-serif" font-size="12" fill="#E85D04" font-weight="bold">₹150</text>
  <text x="220" y="318" font-family="Arial, sans-serif" font-size="9" fill="#F59E0B">⭐ 4.9</text>
  
  <!-- Food Card 3 -->
  <rect x="20" y="340" width="115" height="150" rx="12" fill="#fff" stroke="#e5e7eb"/>
  <rect x="20" y="340" width="115" height="80" rx="12" fill="#FFF3E0"/>
  <text x="77" y="385" font-family="Arial, sans-serif" font-size="28" text-anchor="middle">🍲</text>
  <text x="30" y="440" font-family="Arial, sans-serif" font-size="11" fill="#1a1a1a" font-weight="bold">Rajma Chawal</text>
  <text x="30" y="455" font-family="Arial, sans-serif" font-size="9" fill="#6b7280">By Aunty's Rasoi</text>
  <text x="30" y="478" font-family="Arial, sans-serif" font-size="12" fill="#E85D04" font-weight="bold">₹100</text>
  <text x="95" y="478" font-family="Arial, sans-serif" font-size="9" fill="#F59E0B">⭐ 4.7</text>
  
  <!-- Food Card 4 -->
  <rect x="145" y="340" width="115" height="150" rx="12" fill="#fff" stroke="#e5e7eb"/>
  <rect x="145" y="340" width="115" height="80" rx="12" fill="#FFEBEE"/>
  <text x="202" y="385" font-family="Arial, sans-serif" font-size="28" text-anchor="middle">🥗</text>
  <text x="155" y="440" font-family="Arial, sans-serif" font-size="11" fill="#1a1a1a" font-weight="bold">Special Biryani</text>
  <text x="155" y="455" font-family="Arial, sans-serif" font-size="9" fill="#6b7280">By Biryani House</text>
  <text x="155" y="478" font-family="Arial, sans-serif" font-size="12" fill="#E85D04" font-weight="bold">₹180</text>
  <text x="220" y="478" font-family="Arial, sans-serif" font-size="9" fill="#F59E0B">⭐ 4.9</text>
  
  <!-- Bottom Navigation -->
  <rect x="8" y="500" width="264" height="52" fill="#fff"/>
  <text x="55" y="532" font-family="Arial, sans-serif" font-size="20" text-anchor="middle">🏠</text>
  <text x="110" y="532" font-family="Arial, sans-serif" font-size="20" text-anchor="middle">🔍</text>
  <text x="165" y="532" font-family="Arial, sans-serif" font-size="20" text-anchor="middle">🛒</text>
  <text x="220" y="532" font-family="Arial, sans-serif" font-size="20" text-anchor="middle">👤</text>
</svg>
